<svg width="17" height="18" viewBox="0 0 17 18" fill="none" xmlns="http://www.w3.org/2000/svg">
<path d="M8.585 0.807999C10.149 0.807999 11.5367 1.16067 12.748 1.866C13.9593 2.556 14.9023 3.522 15.577 4.764C16.2517 6.006 16.589 7.41667 16.589 8.996C16.589 10.5753 16.2517 11.9937 15.577 13.251C14.9023 14.493 13.9593 15.4667 12.748 16.172C11.5367 16.862 10.149 17.207 8.585 17.207C7.021 17.207 5.62567 16.862 4.399 16.172C3.18767 15.4667 2.24467 14.493 1.57 13.251C0.895333 11.9937 0.558 10.5753 0.558 8.996C0.558 7.41667 0.895333 6.006 1.57 4.764C2.24467 3.522 3.18767 2.556 4.399 1.866C5.62567 1.16067 7.021 0.807999 8.585 0.807999ZM8.585 1.866C7.18967 1.866 5.97067 2.15733 4.928 2.74C3.90067 3.32267 3.10333 4.15833 2.536 5.247C1.984 6.32033 1.708 7.57 1.708 8.996C1.708 10.422 1.984 11.6717 2.536 12.745C3.10333 13.8183 3.90067 14.654 4.928 15.252C5.97067 15.85 7.18967 16.149 8.585 16.149C9.965 16.149 11.1687 15.85 12.196 15.252C13.2387 14.654 14.036 13.8183 14.588 12.745C15.1553 11.6717 15.439 10.422 15.439 8.996C15.439 7.57 15.1553 6.32033 14.588 5.247C14.036 4.15833 13.2463 3.32267 12.219 2.74C11.1917 2.15733 9.98033 1.866 8.585 1.866ZM8.516 3.706C7.58067 3.706 6.72967 3.92833 5.963 4.373C5.19633 4.80233 4.59067 5.41567 4.146 6.213C3.71667 7.01033 3.502 7.93033 3.502 8.973C3.502 10.0157 3.72433 10.9433 4.169 11.756C4.61367 12.5533 5.21167 13.1743 5.963 13.619C6.72967 14.0483 7.58067 14.263 8.516 14.263C9.68133 14.263 10.6857 13.9563 11.529 13.343C12.3723 12.7143 12.9397 11.894 13.231 10.882H10.839C10.6397 11.3727 10.356 11.7483 9.988 12.009C9.62 12.2697 9.12933 12.4 8.516 12.4C7.70333 12.4 7.05167 12.1087 6.561 11.526C6.07033 10.928 5.825 10.077 5.825 8.973C5.825 7.869 6.07033 7.02567 6.561 6.443C7.05167 5.86033 7.70333 5.569 8.516 5.569C9.09867 5.569 9.58933 5.69933 9.988 5.96C10.402 6.22067 10.6857 6.59633 10.839 7.087H13.231C12.9397 6.01367 12.38 5.18567 11.552 4.603C10.724 4.005 9.712 3.706 8.516 3.706Z" fill="#76767F"/>
</svg>
