<svg width="23" height="22" viewBox="0 0 23 22" fill="none" xmlns="http://www.w3.org/2000/svg">
<path d="M9.85394 7.04736L13.2475 7.04736" stroke="#4C57FF" stroke-width="1.46107" stroke-linecap="round" stroke-linejoin="round"/>
<path d="M13.2532 7.12039C14.9807 8.32073 17.9559 11.8204 17.9559 14.4189C17.9559 17.0496 16.854 19.1819 11.525 19.1819C6.19593 19.1819 5.09399 17.0496 5.09399 14.4189C5.09399 11.8204 8.06921 8.32073 9.79673 7.12039C9.36656 6.29959 6.93843 5.01528 7.2692 3.99542C7.76779 2.45808 15.2405 2.39356 15.7753 3.99367C16.1156 5.01161 13.6821 6.30136 13.2532 7.12039Z" stroke="#4C57FF" stroke-width="1.46107" stroke-linecap="round" stroke-linejoin="round"/>
<path d="M11.4868 10.7054V9.65674" stroke="#4C57FF" stroke-width="1.46107" stroke-linecap="round" stroke-linejoin="round"/>
<path d="M13.2245 10.7043H10.6719C10.4241 10.7043 10.1864 10.803 10.0111 10.9787C9.83586 11.1544 9.73739 11.3927 9.73739 11.6411C9.73593 11.8281 9.79117 12.0111 9.89578 12.1659C10.0004 12.3207 10.1495 12.44 10.3232 12.508L12.6387 13.0883C12.8432 13.1674 13.0134 13.3161 13.1197 13.5083C13.2259 13.7005 13.2613 13.924 13.2198 14.1398C13.1782 14.3555 13.0623 14.5498 12.8924 14.6885C12.7224 14.8273 12.5092 14.9018 12.29 14.8989H9.73739" stroke="#4C57FF" stroke-width="1.46107" stroke-linecap="round" stroke-linejoin="round"/>
<path d="M11.4794 15.9478V14.8992" stroke="#4C57FF" stroke-width="1.46107" stroke-linecap="round" stroke-linejoin="round"/>
</svg>
