<svg width="207" height="109" viewBox="0 0 207 109" fill="none" xmlns="http://www.w3.org/2000/svg">
<path opacity="0.24" d="M206.628 108.242H0.279053V62.1379C4.94187 57.6316 11.0994 54.4353 17.8492 56.0149C21.572 56.9905 25.8211 60.642 29.0362 61.3481C31.7719 61.9521 33.5016 60.577 35.1468 58.059C36.7919 55.4852 37.9858 52.2147 39.49 49.483C42.3666 43.202 46.0789 37.8294 53.4878 35.6295C61.4756 33.2577 67.0532 42.1799 74.2073 40.749C82.2826 38.9279 88.2709 22.5193 96.5813 21.0791C100.633 20.3729 106.453 26.8396 110.269 25.3158C118.335 22.4819 126.805 7.06761 135.172 16.5263C139.336 21.1441 140.352 28.41 145.315 32.3031C152.761 36.8188 156.502 22.9931 157.903 17.6041C159.435 11.1001 164.341 1.61795 173.196 9.86874C176.74 13.2415 179.017 13.4322 182.787 16.1639C191.029 21.0593 197.9 -1.45204 206.628 0.112816V108.242Z" fill="url(#paint0_linear_4001_2162)"/>
<defs>
<linearGradient id="paint0_linear_4001_2162" x1="103.418" y1="24.0001" x2="103.453" y2="108.242" gradientUnits="userSpaceOnUse">
<stop stop-color="#4C57FF"/>
<stop offset="1" stop-color="#4C57FF" stop-opacity="0.11"/>
</linearGradient>
</defs>
</svg>
