<svg width="184" height="86" viewBox="0 0 184 86" fill="none" xmlns="http://www.w3.org/2000/svg">
<path d="M1 49.663C5.07848 46.0643 10.4679 43.5177 16.3742 44.7758C19.6313 45.5544 23.3526 48.4667 26.1595 49.0323C28.5518 49.5179 30.0641 48.4152 31.5023 46.4064C32.9397 44.3542 33.9867 41.7431 35.3041 39.5648C37.8208 34.5531 41.0307 30.2563 47.551 28.5098C54.5453 26.6362 59.4193 33.7393 65.6811 32.5994C72.7456 31.1456 77.9907 18.0477 85.2558 16.9003C88.798 16.3378 95.2091 21.7813 98.5489 20.5708C105.607 18.3081 111.697 5.71913 119.024 13.2702C122.672 16.9553 123.556 22.7582 127.897 25.8648C134.411 29.4713 137.662 21.1987 138.887 16.9003C140.225 11.7124 146.764 1.35635 154.513 7.94407C157.618 10.6335 157.761 11.5901 161.055 13.7718C167.442 17.2259 174.622 0.17619 182.496 1.4688" stroke="#4C57FF" stroke-width="2" stroke-miterlimit="10" stroke-linecap="round"/>
<path opacity="0.24" d="M183 85.8891H1V49.3413C5.11262 45.769 10.5436 43.2352 16.4969 44.4873C19.7804 45.2607 23.5282 48.1554 26.3639 48.7152C28.7768 49.194 30.3024 48.1038 31.7534 46.1078C33.2045 44.0675 34.2575 41.4748 35.5841 39.3094C38.1214 34.3302 41.3956 30.0712 47.9303 28.3273C54.9755 26.4471 59.895 33.52 66.2049 32.3857C73.3274 30.9421 78.6091 17.9345 85.9389 16.7928C89.5125 16.233 94.6454 21.3593 98.0118 20.1514C105.126 17.9049 112.596 5.68555 119.976 13.1837C123.649 16.8444 124.544 22.6043 128.922 25.6904C135.489 29.2701 138.789 18.3101 140.025 14.0381C141.376 8.88221 145.703 1.36547 153.513 7.90609C156.639 10.5798 158.648 10.731 161.973 12.8964C169.242 16.7771 175.302 -1.0682 183 0.172302V85.8891Z" fill="url(#paint0_linear_4001_2210)"/>
<defs>
<linearGradient id="paint0_linear_4001_2210" x1="91.9691" y1="19.1084" x2="91.9941" y2="85.8891" gradientUnits="userSpaceOnUse">
<stop stop-color="#4C57FF"/>
<stop offset="1" stop-color="#4C57FF" stop-opacity="0.11"/>
</linearGradient>
</defs>
</svg>
