<svg width="104" height="23" viewBox="0 0 104 23" fill="none" xmlns="http://www.w3.org/2000/svg">
<path d="M0.785004 0.603051H14.958V3.20005H9.38601V17.8021H6.32V3.20005H0.772003V0.602051H0.784004L0.785004 0.603051ZM14.353 5.34805H16.973V7.75205H17.022C17.109 7.41205 17.269 7.08405 17.504 6.76805C18.0065 6.09076 18.6866 5.56572 19.469 5.25105C19.8664 5.09357 20.2896 5.01117 20.717 5.00805C21.037 5.00805 21.273 5.02005 21.397 5.03305C21.52 5.04505 21.643 5.06905 21.779 5.08105V7.72705C21.5783 7.69195 21.3766 7.6636 21.174 7.64205C20.9729 7.61826 20.7705 7.60623 20.568 7.60605C20.098 7.60605 19.654 7.70305 19.234 7.88605C18.814 8.06705 18.455 8.34605 18.147 8.69905C17.8184 9.09374 17.5667 9.54657 17.405 10.034C17.22 10.5681 17.133 11.1741 17.133 11.8671V17.7901H14.341V5.34805H14.353ZM34.618 17.8031H31.875V16.0671H31.825C31.479 16.6991 30.973 17.1971 30.293 17.5731C29.613 17.9491 28.921 18.1431 28.217 18.1431C26.549 18.1431 25.337 17.743 24.597 16.9291C23.855 16.1161 23.484 14.8901 23.484 13.2511V5.34905H26.277V12.9841C26.277 14.0771 26.487 14.8541 26.92 15.3031C27.34 15.7521 27.945 15.9831 28.711 15.9831C29.304 15.9831 29.786 15.8981 30.181 15.7151C30.577 15.5331 30.898 15.3031 31.133 14.9991C31.38 14.708 31.553 14.3441 31.665 13.9311C31.775 13.5181 31.825 13.0691 31.825 12.5841V5.36105H34.618V17.8031ZM39.375 13.8101C39.462 14.6101 39.77 15.1701 40.302 15.4971C40.845 15.8131 41.488 15.9831 42.242 15.9831C42.502 15.9831 42.798 15.9581 43.132 15.9221C43.465 15.8851 43.786 15.8001 44.071 15.6921C44.367 15.5821 44.601 15.4121 44.799 15.1941C44.985 14.9741 45.071 14.6961 45.059 14.3441C45.0574 14.1807 45.0214 14.0195 44.9533 13.871C44.8853 13.7224 44.7867 13.5899 44.664 13.4821C44.416 13.2521 44.108 13.0821 43.724 12.9361C43.2962 12.7878 42.8585 12.6702 42.414 12.5841C41.92 12.4871 41.426 12.3771 40.92 12.2681C40.4102 12.1578 39.9068 12.0199 39.412 11.8551C38.9479 11.7063 38.5102 11.4853 38.115 11.2001C37.7299 10.9313 37.4159 10.573 37.2 10.1561C36.966 9.73105 36.854 9.20905 36.854 8.57805C36.854 7.89805 37.027 7.34005 37.361 6.87805C37.6979 6.41991 38.1328 6.04274 38.634 5.77405C39.1726 5.48931 39.7517 5.28865 40.351 5.17905C40.981 5.07005 41.587 5.00905 42.155 5.00905C42.81 5.00905 43.44 5.08205 44.034 5.21605C44.6091 5.33917 45.1572 5.56513 45.652 5.88305C46.134 6.18705 46.529 6.58705 46.851 7.07305C47.172 7.55805 47.37 8.15305 47.456 8.84505H44.54C44.404 8.19005 44.107 7.74105 43.626 7.52205C43.144 7.29205 42.588 7.18205 41.97 7.18205C41.772 7.18205 41.537 7.19405 41.266 7.23105C41.0049 7.26578 40.7479 7.32675 40.499 7.41305C40.2715 7.49683 40.065 7.62924 39.894 7.80105C39.811 7.89071 39.7464 7.99585 39.704 8.11047C39.6616 8.22509 39.6423 8.34694 39.647 8.46905C39.647 8.80905 39.77 9.07605 40.005 9.28205C40.24 9.48805 40.549 9.65805 40.932 9.80405C41.315 9.93805 41.748 10.0591 42.242 10.1561C42.736 10.2531 43.242 10.3621 43.762 10.4721C44.268 10.5811 44.762 10.7271 45.257 10.8841C45.751 11.0421 46.183 11.2611 46.567 11.5401C46.95 11.8191 47.259 12.159 47.493 12.5721C47.728 12.984 47.852 13.5061 47.852 14.1131C47.852 14.8531 47.679 15.4731 47.332 15.9951C46.987 16.5051 46.542 16.9291 45.998 17.2451C45.4285 17.5731 44.8115 17.8106 44.169 17.9491C43.5154 18.0928 42.8482 18.1659 42.179 18.1671C41.4295 18.1755 40.6822 18.0857 39.956 17.9001C39.276 17.7181 38.683 17.451 38.189 17.1C37.7008 16.7453 37.2994 16.2844 37.015 15.7521C36.731 15.2181 36.582 14.5741 36.558 13.8341H39.375V13.8101ZM48.593 5.35005H50.706V1.61005H53.499V5.35005H56.019V7.40005H53.5V14.0531C53.5 14.3431 53.512 14.5871 53.537 14.8051C53.561 15.0121 53.623 15.194 53.71 15.3391C53.8045 15.4914 53.948 15.6071 54.117 15.6671C54.303 15.7401 54.537 15.7771 54.859 15.7771C55.056 15.7771 55.254 15.7771 55.452 15.7641C55.65 15.7521 55.847 15.7281 56.045 15.6791V17.8031C55.736 17.8401 55.427 17.8641 55.143 17.9001C54.8436 17.9349 54.5424 17.9512 54.241 17.9491C53.5 17.9491 52.907 17.8761 52.461 17.7431C52.017 17.6091 51.658 17.4031 51.411 17.1361C51.151 16.8691 50.991 16.5411 50.892 16.1401C50.7957 15.6891 50.7422 15.2301 50.732 14.7691V7.42305H48.619V5.34705H48.594L48.593 5.35005ZM57.996 5.35005H60.641V7.03605H60.691C61.085 6.30805 61.629 5.79805 62.333 5.48305C63.0526 5.16311 63.8325 5.00147 64.62 5.00905C65.62 5.00905 66.485 5.17905 67.227 5.53105C67.968 5.87105 68.586 6.34505 69.08 6.95105C69.574 7.55805 69.933 8.26205 70.18 9.06405C70.4317 9.89833 70.5567 10.7657 70.551 11.6371C70.551 12.4741 70.44 13.2871 70.217 14.0651C70.0122 14.8155 69.673 15.5226 69.216 16.1521C68.7668 16.7589 68.1833 17.2535 67.511 17.5971C66.819 17.9611 66.016 18.1431 65.077 18.1431C64.6666 18.1426 64.257 18.1058 63.853 18.0331C63.4501 17.9604 63.0566 17.8427 62.68 17.6821C62.3059 17.5259 61.956 17.3172 61.641 17.0621C61.3301 16.814 61.0592 16.5196 60.838 16.1891H60.788V22.4041H57.996V5.34805V5.35005ZM67.758 11.5881C67.7586 11.0345 67.6839 10.4835 67.536 9.95005C67.3991 9.44464 67.1728 8.9678 66.868 8.54205C66.5787 8.137 66.2034 7.80097 65.769 7.55805C65.3024 7.30592 64.7794 7.17654 64.249 7.18205C63.075 7.18205 62.185 7.58205 61.592 8.38405C60.999 9.18505 60.702 10.2541 60.702 11.5881C60.702 12.2191 60.777 12.802 60.937 13.3361C61.097 13.8701 61.32 14.3321 61.641 14.7201C61.951 15.1091 62.321 15.4121 62.754 15.6301C63.186 15.8611 63.693 15.9701 64.261 15.9701C64.904 15.9701 65.435 15.8371 65.88 15.5821C66.3109 15.3341 66.682 14.9944 66.967 14.5871C67.251 14.1741 67.462 13.7121 67.585 13.1911C67.6987 12.6643 67.7567 12.127 67.758 11.5881ZM72.688 0.603051H75.481V3.20105H72.688V0.603051ZM72.688 5.34905H75.481V17.8031H72.688V5.34905ZM77.977 0.603051H80.77V17.8031H77.977V0.603051ZM89.333 18.1431C88.319 18.1431 87.417 17.9731 86.627 17.6461C85.8696 17.3354 85.1841 16.8725 84.613 16.2861C84.0577 15.6878 83.6324 14.9809 83.364 14.2101C83.0701 13.3592 82.924 12.4642 82.932 11.5641C82.932 10.6171 83.08 9.74405 83.364 8.94205C83.6326 8.17158 84.0579 7.46508 84.613 6.86705C85.156 6.28405 85.836 5.83505 86.627 5.50705C87.417 5.17905 88.319 5.00905 89.333 5.00905C90.346 5.00905 91.248 5.17905 92.039 5.50705C92.83 5.83505 93.497 6.29705 94.053 6.86705C94.6081 7.46487 95.0331 8.17145 95.301 8.94205C95.585 9.74305 95.733 10.6171 95.733 11.5641C95.733 12.5241 95.585 13.4091 95.301 14.2101C95.0333 14.981 94.6083 15.688 94.053 16.2861C93.509 16.8691 92.83 17.3181 92.039 17.6461C91.248 17.9731 90.346 18.1431 89.333 18.1431ZM89.333 15.9701C89.951 15.9701 90.494 15.8371 90.951 15.5821C91.3964 15.3341 91.7808 14.9897 92.076 14.5741C92.372 14.1621 92.582 13.6881 92.731 13.1661C92.867 12.6441 92.941 12.1101 92.941 11.5641C92.941 11.0301 92.867 10.5081 92.731 9.97405C92.6037 9.46752 92.3814 8.98975 92.076 8.56605C91.7802 8.15435 91.3958 7.81432 90.951 7.57105C90.494 7.31605 89.951 7.18205 89.333 7.18205C88.715 7.18205 88.171 7.31605 87.714 7.57105C87.2722 7.81804 86.8888 8.15742 86.59 8.56605C86.2889 8.99227 86.067 9.46921 85.935 9.97405C85.7981 10.4931 85.7272 11.0273 85.724 11.5641C85.724 12.1101 85.799 12.6441 85.935 13.1661C86.071 13.6881 86.293 14.1621 86.59 14.5741C86.886 14.9871 87.257 15.3271 87.714 15.5821C88.171 15.8491 88.715 15.9701 89.333 15.9701ZM96.549 5.35005H98.662V1.61005H101.455V5.35005H103.975V7.40005H101.455V14.0531C101.455 14.3431 101.467 14.5871 101.491 14.8051C101.516 15.0121 101.578 15.194 101.665 15.3391C101.759 15.4916 101.903 15.6073 102.072 15.6671C102.258 15.7401 102.492 15.7771 102.814 15.7771C103.011 15.7771 103.209 15.7771 103.407 15.7641C103.605 15.7521 103.802 15.7281 104 15.6791V17.8031C103.691 17.8401 103.382 17.8641 103.098 17.9001C102.799 17.9348 102.497 17.9512 102.196 17.9491C101.455 17.9491 100.861 17.8761 100.416 17.7431C99.972 17.6091 99.613 17.4031 99.366 17.1361C99.107 16.8691 98.946 16.5411 98.847 16.1401C98.7509 15.6891 98.6973 15.2301 98.687 14.7691V7.42305H96.574V5.34705H96.549V5.35005Z" fill="white"/>
</svg>
